<svg xmlns="http://www.w3.org/2000/svg" xmlns:xlink="http://www.w3.org/1999/xlink" width="387" zoomAndPan="magnify" viewBox="0 0 290.25 103.5" height="138" preserveAspectRatio="xMidYMid meet" version="1.0"><defs><g/></defs><g fill="#000000" fill-opacity="1"><g transform="translate(35.354554, 70.184917)"><g><path d="M 2.671875 0 L 2.671875 -26.421875 L 7.5625 -26.421875 C 8.550781 -26.421875 9.195312 -25.984375 9.5 -25.109375 L 9.9375 -23.671875 C 10.375 -24.128906 10.832031 -24.550781 11.3125 -24.9375 C 11.789062 -25.320312 12.304688 -25.648438 12.859375 -25.921875 C 13.410156 -26.203125 14.003906 -26.421875 14.640625 -26.578125 C 15.273438 -26.742188 15.976562 -26.828125 16.75 -26.828125 C 18.34375 -26.828125 19.660156 -26.414062 20.703125 -25.59375 C 21.742188 -24.769531 22.539062 -23.671875 23.09375 -22.296875 C 23.53125 -23.109375 24.066406 -23.800781 24.703125 -24.375 C 25.335938 -24.957031 26.023438 -25.425781 26.765625 -25.78125 C 27.503906 -26.144531 28.285156 -26.410156 29.109375 -26.578125 C 29.941406 -26.742188 30.765625 -26.828125 31.578125 -26.828125 C 33.085938 -26.828125 34.425781 -26.601562 35.59375 -26.15625 C 36.769531 -25.707031 37.753906 -25.050781 38.546875 -24.1875 C 39.335938 -23.332031 39.9375 -22.28125 40.34375 -21.03125 C 40.75 -19.789062 40.953125 -18.378906 40.953125 -16.796875 L 40.953125 0 L 33.046875 0 L 33.046875 -16.796875 C 33.046875 -19.523438 31.875 -20.890625 29.53125 -20.890625 C 28.46875 -20.890625 27.582031 -20.535156 26.875 -19.828125 C 26.164062 -19.128906 25.8125 -18.117188 25.8125 -16.796875 L 25.8125 0 L 17.921875 0 L 17.921875 -16.796875 C 17.921875 -18.304688 17.617188 -19.363281 17.015625 -19.96875 C 16.421875 -20.582031 15.550781 -20.890625 14.40625 -20.890625 C 13.6875 -20.890625 13.007812 -20.726562 12.375 -20.40625 C 11.738281 -20.082031 11.140625 -19.648438 10.578125 -19.109375 L 10.578125 0 Z M 2.671875 0 "/></g></g></g><g fill="#000000" fill-opacity="1"><g transform="translate(73.924505, 70.184917)"><g><path d="M 26.375 -26.421875 L 26.375 0 L 21.484375 0 C 20.492188 0 19.847656 -0.441406 19.546875 -1.328125 L 19.09375 -2.859375 C 18.582031 -2.359375 18.050781 -1.910156 17.5 -1.515625 C 16.957031 -1.117188 16.375 -0.78125 15.75 -0.5 C 15.132812 -0.21875 14.46875 0 13.75 0.15625 C 13.03125 0.320312 12.242188 0.40625 11.390625 0.40625 C 9.941406 0.40625 8.660156 0.15625 7.546875 -0.34375 C 6.441406 -0.84375 5.503906 -1.539062 4.734375 -2.4375 C 3.972656 -3.34375 3.394531 -4.40625 3 -5.625 C 2.613281 -6.851562 2.421875 -8.195312 2.421875 -9.65625 L 2.421875 -26.421875 L 10.328125 -26.421875 L 10.328125 -9.65625 C 10.328125 -8.351562 10.625 -7.34375 11.21875 -6.625 C 11.8125 -5.914062 12.6875 -5.5625 13.84375 -5.5625 C 14.707031 -5.5625 15.515625 -5.742188 16.265625 -6.109375 C 17.023438 -6.472656 17.757812 -6.96875 18.46875 -7.59375 L 18.46875 -26.421875 Z M 26.375 -26.421875 "/></g></g></g><g fill="#000000" fill-opacity="1"><g transform="translate(98.176685, 70.184917)"><g><path d="M 18.703125 -19.34375 C 18.109375 -20.007812 17.460938 -20.472656 16.765625 -20.734375 C 16.066406 -20.992188 15.335938 -21.125 14.578125 -21.125 C 13.847656 -21.125 13.175781 -20.976562 12.5625 -20.6875 C 11.945312 -20.40625 11.414062 -19.941406 10.96875 -19.296875 C 10.519531 -18.660156 10.164062 -17.832031 9.90625 -16.8125 C 9.65625 -15.800781 9.53125 -14.570312 9.53125 -13.125 C 9.53125 -11.726562 9.628906 -10.554688 9.828125 -9.609375 C 10.035156 -8.660156 10.320312 -7.890625 10.6875 -7.296875 C 11.050781 -6.710938 11.488281 -6.289062 12 -6.03125 C 12.507812 -5.78125 13.078125 -5.65625 13.703125 -5.65625 C 14.285156 -5.65625 14.8125 -5.707031 15.28125 -5.8125 C 15.75 -5.925781 16.175781 -6.082031 16.5625 -6.28125 C 16.957031 -6.488281 17.328125 -6.75 17.671875 -7.0625 C 18.023438 -7.382812 18.367188 -7.75 18.703125 -8.15625 Z M 26.609375 -38.15625 L 26.609375 0 L 21.71875 0 C 20.726562 0 20.082031 -0.441406 19.78125 -1.328125 L 19.171875 -3.34375 C 18.640625 -2.78125 18.082031 -2.269531 17.5 -1.8125 C 16.925781 -1.351562 16.300781 -0.957031 15.625 -0.625 C 14.957031 -0.289062 14.238281 -0.0351562 13.46875 0.140625 C 12.695312 0.316406 11.859375 0.40625 10.953125 0.40625 C 9.578125 0.40625 8.300781 0.101562 7.125 -0.5 C 5.957031 -1.113281 4.945312 -2 4.09375 -3.15625 C 3.25 -4.3125 2.582031 -5.722656 2.09375 -7.390625 C 1.613281 -9.066406 1.375 -10.976562 1.375 -13.125 C 1.375 -15.09375 1.644531 -16.921875 2.1875 -18.609375 C 2.726562 -20.304688 3.492188 -21.769531 4.484375 -23 C 5.484375 -24.226562 6.679688 -25.191406 8.078125 -25.890625 C 9.472656 -26.585938 11.007812 -26.9375 12.6875 -26.9375 C 14.0625 -26.9375 15.21875 -26.738281 16.15625 -26.34375 C 17.09375 -25.957031 17.941406 -25.429688 18.703125 -24.765625 L 18.703125 -38.15625 Z M 26.609375 -38.15625 "/></g></g></g><g fill="#000000" fill-opacity="1"><g transform="translate(122.658149, 70.184917)"><g><path d="M 10.0625 -22.34375 C 10.882812 -23.769531 11.820312 -24.890625 12.875 -25.703125 C 13.9375 -26.523438 15.160156 -26.9375 16.546875 -26.9375 C 17.734375 -26.9375 18.695312 -26.65625 19.4375 -26.09375 L 18.9375 -20.28125 C 18.851562 -19.90625 18.710938 -19.648438 18.515625 -19.515625 C 18.316406 -19.378906 18.050781 -19.3125 17.71875 -19.3125 C 17.570312 -19.3125 17.390625 -19.320312 17.171875 -19.34375 C 16.953125 -19.363281 16.722656 -19.382812 16.484375 -19.40625 C 16.242188 -19.425781 16 -19.445312 15.75 -19.46875 C 15.507812 -19.5 15.289062 -19.515625 15.09375 -19.515625 C 13.9375 -19.515625 13.015625 -19.207031 12.328125 -18.59375 C 11.640625 -17.988281 11.054688 -17.144531 10.578125 -16.0625 L 10.578125 0 L 2.671875 0 L 2.671875 -26.421875 L 7.359375 -26.421875 C 7.753906 -26.421875 8.082031 -26.382812 8.34375 -26.3125 C 8.601562 -26.25 8.820312 -26.144531 9 -26 C 9.1875 -25.863281 9.328125 -25.675781 9.421875 -25.4375 C 9.515625 -25.195312 9.59375 -24.90625 9.65625 -24.5625 Z M 10.0625 -22.34375 "/></g></g></g><g fill="#000000" fill-opacity="1"><g transform="translate(137.305697, 70.184917)"><g><path d="M 27.78125 -26.421875 L 13.65625 6.859375 C 13.414062 7.378906 13.125 7.765625 12.78125 8.015625 C 12.445312 8.265625 11.90625 8.390625 11.15625 8.390625 L 5.25 8.390625 L 10.34375 -2.3125 L -0.203125 -26.421875 L 6.78125 -26.421875 C 7.394531 -26.421875 7.863281 -26.285156 8.1875 -26.015625 C 8.519531 -25.742188 8.765625 -25.421875 8.921875 -25.046875 L 13.25 -13.65625 C 13.65625 -12.625 13.988281 -11.5625 14.25 -10.46875 C 14.4375 -11.019531 14.625 -11.566406 14.8125 -12.109375 C 15 -12.648438 15.191406 -13.179688 15.390625 -13.703125 L 19.3125 -25.046875 C 19.46875 -25.441406 19.738281 -25.769531 20.125 -26.03125 C 20.519531 -26.289062 20.945312 -26.421875 21.40625 -26.421875 Z M 27.78125 -26.421875 "/></g></g></g><g fill="#000000" fill-opacity="1"><g transform="translate(159.927377, 70.184917)"><g><path d="M 22.09375 -20.15625 C 21.851562 -19.863281 21.625 -19.632812 21.40625 -19.46875 C 21.1875 -19.300781 20.875 -19.21875 20.46875 -19.21875 C 20.070312 -19.21875 19.71875 -19.3125 19.40625 -19.5 C 19.09375 -19.6875 18.738281 -19.894531 18.34375 -20.125 C 17.957031 -20.351562 17.5 -20.5625 16.96875 -20.75 C 16.445312 -20.9375 15.796875 -21.03125 15.015625 -21.03125 C 14.046875 -21.03125 13.207031 -20.847656 12.5 -20.484375 C 11.789062 -20.128906 11.207031 -19.617188 10.75 -18.953125 C 10.289062 -18.296875 9.953125 -17.488281 9.734375 -16.53125 C 9.515625 -15.570312 9.40625 -14.488281 9.40625 -13.28125 C 9.40625 -10.75 9.890625 -8.800781 10.859375 -7.4375 C 11.835938 -6.082031 13.1875 -5.40625 14.90625 -5.40625 C 15.820312 -5.40625 16.546875 -5.519531 17.078125 -5.75 C 17.617188 -5.976562 18.078125 -6.234375 18.453125 -6.515625 C 18.828125 -6.796875 19.171875 -7.050781 19.484375 -7.28125 C 19.796875 -7.519531 20.191406 -7.640625 20.671875 -7.640625 C 21.296875 -7.640625 21.769531 -7.410156 22.09375 -6.953125 L 24.390625 -4.125 C 23.578125 -3.195312 22.71875 -2.4375 21.8125 -1.84375 C 20.914062 -1.257812 19.992188 -0.800781 19.046875 -0.46875 C 18.109375 -0.132812 17.160156 0.09375 16.203125 0.21875 C 15.253906 0.34375 14.332031 0.40625 13.4375 0.40625 C 11.820312 0.40625 10.273438 0.101562 8.796875 -0.5 C 7.328125 -1.113281 6.035156 -2.003906 4.921875 -3.171875 C 3.816406 -4.335938 2.9375 -5.769531 2.28125 -7.46875 C 1.625 -9.164062 1.296875 -11.101562 1.296875 -13.28125 C 1.296875 -15.175781 1.578125 -16.953125 2.140625 -18.609375 C 2.710938 -20.265625 3.554688 -21.703125 4.671875 -22.921875 C 5.785156 -24.140625 7.160156 -25.09375 8.796875 -25.78125 C 10.441406 -26.476562 12.34375 -26.828125 14.5 -26.828125 C 16.570312 -26.828125 18.390625 -26.492188 19.953125 -25.828125 C 21.515625 -25.171875 22.925781 -24.207031 24.1875 -22.9375 Z M 22.09375 -20.15625 "/></g></g></g><g fill="#000000" fill-opacity="1"><g transform="translate(179.924992, 70.184917)"><g><path d="M 14.859375 -26.828125 C 16.859375 -26.828125 18.679688 -26.515625 20.328125 -25.890625 C 21.984375 -25.265625 23.398438 -24.363281 24.578125 -23.1875 C 25.753906 -22.019531 26.671875 -20.597656 27.328125 -18.921875 C 27.984375 -17.242188 28.3125 -15.363281 28.3125 -13.28125 C 28.3125 -11.175781 27.984375 -9.273438 27.328125 -7.578125 C 26.671875 -5.890625 25.753906 -4.453125 24.578125 -3.265625 C 23.398438 -2.085938 21.984375 -1.179688 20.328125 -0.546875 C 18.679688 0.0859375 16.859375 0.40625 14.859375 0.40625 C 12.835938 0.40625 11 0.0859375 9.34375 -0.546875 C 7.6875 -1.179688 6.257812 -2.085938 5.0625 -3.265625 C 3.863281 -4.453125 2.9375 -5.890625 2.28125 -7.578125 C 1.625 -9.273438 1.296875 -11.175781 1.296875 -13.28125 C 1.296875 -15.363281 1.625 -17.242188 2.28125 -18.921875 C 2.9375 -20.597656 3.863281 -22.019531 5.0625 -23.1875 C 6.257812 -24.363281 7.6875 -25.265625 9.34375 -25.890625 C 11 -26.515625 12.835938 -26.828125 14.859375 -26.828125 Z M 14.859375 -5.453125 C 16.671875 -5.453125 18.003906 -6.09375 18.859375 -7.375 C 19.722656 -8.65625 20.15625 -10.601562 20.15625 -13.21875 C 20.15625 -15.84375 19.722656 -17.789062 18.859375 -19.0625 C 18.003906 -20.332031 16.671875 -20.96875 14.859375 -20.96875 C 12.984375 -20.96875 11.613281 -20.332031 10.75 -19.0625 C 9.882812 -17.789062 9.453125 -15.84375 9.453125 -13.21875 C 9.453125 -10.601562 9.882812 -8.65625 10.75 -7.375 C 11.613281 -6.09375 12.984375 -5.453125 14.859375 -5.453125 Z M 14.859375 -5.453125 "/></g></g></g><g fill="#000000" fill-opacity="1"><g transform="translate(204.737657, 70.184917)"><g><path d="M 10.0625 -22.34375 C 10.882812 -23.769531 11.820312 -24.890625 12.875 -25.703125 C 13.9375 -26.523438 15.160156 -26.9375 16.546875 -26.9375 C 17.734375 -26.9375 18.695312 -26.65625 19.4375 -26.09375 L 18.9375 -20.28125 C 18.851562 -19.90625 18.710938 -19.648438 18.515625 -19.515625 C 18.316406 -19.378906 18.050781 -19.3125 17.71875 -19.3125 C 17.570312 -19.3125 17.390625 -19.320312 17.171875 -19.34375 C 16.953125 -19.363281 16.722656 -19.382812 16.484375 -19.40625 C 16.242188 -19.425781 16 -19.445312 15.75 -19.46875 C 15.507812 -19.5 15.289062 -19.515625 15.09375 -19.515625 C 13.9375 -19.515625 13.015625 -19.207031 12.328125 -18.59375 C 11.640625 -17.988281 11.054688 -17.144531 10.578125 -16.0625 L 10.578125 0 L 2.671875 0 L 2.671875 -26.421875 L 7.359375 -26.421875 C 7.753906 -26.421875 8.082031 -26.382812 8.34375 -26.3125 C 8.601562 -26.25 8.820312 -26.144531 9 -26 C 9.1875 -25.863281 9.328125 -25.675781 9.421875 -25.4375 C 9.515625 -25.195312 9.59375 -24.90625 9.65625 -24.5625 Z M 10.0625 -22.34375 "/></g></g></g><g fill="#000000" fill-opacity="1"><g transform="translate(219.38521, 70.184917)"><g><path d="M 19.109375 -16.390625 C 19.109375 -17.015625 19.023438 -17.625 18.859375 -18.21875 C 18.703125 -18.8125 18.441406 -19.34375 18.078125 -19.8125 C 17.710938 -20.28125 17.234375 -20.65625 16.640625 -20.9375 C 16.046875 -21.226562 15.320312 -21.375 14.46875 -21.375 C 12.976562 -21.375 11.804688 -20.945312 10.953125 -20.09375 C 10.109375 -19.238281 9.550781 -18.003906 9.28125 -16.390625 Z M 9.171875 -11.796875 C 9.429688 -9.585938 10.101562 -7.984375 11.1875 -6.984375 C 12.269531 -5.992188 13.671875 -5.5 15.390625 -5.5 C 16.304688 -5.5 17.09375 -5.609375 17.75 -5.828125 C 18.414062 -6.054688 19.007812 -6.304688 19.53125 -6.578125 C 20.050781 -6.847656 20.523438 -7.09375 20.953125 -7.3125 C 21.390625 -7.53125 21.847656 -7.640625 22.328125 -7.640625 C 22.953125 -7.640625 23.425781 -7.410156 23.75 -6.953125 L 26.046875 -4.125 C 25.234375 -3.195312 24.351562 -2.4375 23.40625 -1.84375 C 22.46875 -1.257812 21.5 -0.800781 20.5 -0.46875 C 19.507812 -0.132812 18.515625 0.09375 17.515625 0.21875 C 16.523438 0.34375 15.578125 0.40625 14.671875 0.40625 C 12.828125 0.40625 11.09375 0.101562 9.46875 -0.5 C 7.84375 -1.101562 6.421875 -2 5.203125 -3.1875 C 3.992188 -4.375 3.035156 -5.847656 2.328125 -7.609375 C 1.628906 -9.378906 1.28125 -11.4375 1.28125 -13.78125 C 1.28125 -15.550781 1.578125 -17.222656 2.171875 -18.796875 C 2.773438 -20.378906 3.640625 -21.765625 4.765625 -22.953125 C 5.898438 -24.148438 7.269531 -25.09375 8.875 -25.78125 C 10.488281 -26.476562 12.304688 -26.828125 14.328125 -26.828125 C 16.078125 -26.828125 17.675781 -26.554688 19.125 -26.015625 C 20.582031 -25.472656 21.832031 -24.679688 22.875 -23.640625 C 23.914062 -22.609375 24.726562 -21.335938 25.3125 -19.828125 C 25.90625 -18.328125 26.203125 -16.628906 26.203125 -14.734375 C 26.203125 -14.140625 26.175781 -13.65625 26.125 -13.28125 C 26.070312 -12.90625 25.976562 -12.601562 25.84375 -12.375 C 25.707031 -12.15625 25.523438 -12.003906 25.296875 -11.921875 C 25.066406 -11.835938 24.769531 -11.796875 24.40625 -11.796875 Z M 9.171875 -11.796875 "/></g></g></g><g fill="#000000" fill-opacity="1"><g transform="translate(242.059098, 70.184917)"><g><path d="M 2.828125 -2.796875 C 2.828125 -3.242188 2.90625 -3.660156 3.0625 -4.046875 C 3.226562 -4.441406 3.453125 -4.78125 3.734375 -5.0625 C 4.015625 -5.351562 4.347656 -5.582031 4.734375 -5.75 C 5.128906 -5.925781 5.546875 -6.015625 5.984375 -6.015625 C 6.429688 -6.015625 6.847656 -5.925781 7.234375 -5.75 C 7.628906 -5.582031 7.96875 -5.351562 8.25 -5.0625 C 8.539062 -4.78125 8.769531 -4.441406 8.9375 -4.046875 C 9.113281 -3.660156 9.203125 -3.242188 9.203125 -2.796875 C 9.203125 -2.335938 9.113281 -1.914062 8.9375 -1.53125 C 8.769531 -1.15625 8.539062 -0.820312 8.25 -0.53125 C 7.96875 -0.25 7.628906 -0.03125 7.234375 0.125 C 6.847656 0.289062 6.429688 0.375 5.984375 0.375 C 5.546875 0.375 5.128906 0.289062 4.734375 0.125 C 4.347656 -0.03125 4.015625 -0.25 3.734375 -0.53125 C 3.453125 -0.820312 3.226562 -1.15625 3.0625 -1.53125 C 2.90625 -1.914062 2.828125 -2.335938 2.828125 -2.796875 Z M 2.828125 -2.796875 "/></g></g></g><g fill="#000000" fill-opacity="1"><g transform="translate(169.429179, 78.802576)"><g><path d="M 7 -5.421875 C 7.132812 -5.421875 7.242188 -5.375 7.328125 -5.28125 C 7.421875 -5.1875 7.46875 -5.070312 7.46875 -4.9375 C 7.46875 -4.882812 7.457031 -4.816406 7.4375 -4.734375 L 5.859375 -0.3125 C 5.816406 -0.195312 5.75 -0.113281 5.65625 -0.0625 C 5.5625 -0.0078125 5.457031 0.0078125 5.34375 0 C 5.164062 -0.0078125 5.03125 -0.113281 4.9375 -0.3125 L 3.859375 -3.09375 L 2.875 -0.3125 C 2.832031 -0.207031 2.773438 -0.128906 2.703125 -0.078125 C 2.628906 -0.0351562 2.546875 -0.0078125 2.453125 0 C 2.359375 0.0078125 2.257812 -0.0078125 2.15625 -0.0625 C 2.0625 -0.125 1.992188 -0.207031 1.953125 -0.3125 L 0.375 -4.734375 C 0.351562 -4.796875 0.34375 -4.863281 0.34375 -4.9375 C 0.34375 -5.070312 0.382812 -5.1875 0.46875 -5.28125 C 0.5625 -5.375 0.675781 -5.421875 0.8125 -5.421875 C 1.050781 -5.421875 1.203125 -5.316406 1.265625 -5.109375 L 2.484375 -1.65625 L 3.46875 -4.21875 C 3.550781 -4.414062 3.703125 -4.515625 3.921875 -4.515625 C 4.117188 -4.515625 4.253906 -4.414062 4.328125 -4.21875 L 5.328125 -1.703125 L 6.53125 -5.109375 C 6.601562 -5.316406 6.757812 -5.421875 7 -5.421875 Z M 7 -5.421875 "/></g></g></g><g fill="#000000" fill-opacity="1"><g transform="translate(183.918282, 78.802576)"><g><path d="M 5.4375 -2.890625 C 5.4375 -2.765625 5.382812 -2.660156 5.28125 -2.578125 C 5.1875 -2.492188 5.078125 -2.453125 4.953125 -2.453125 L 1.34375 -2.453125 C 1.394531 -1.953125 1.582031 -1.550781 1.90625 -1.25 C 2.238281 -0.945312 2.644531 -0.796875 3.125 -0.796875 C 3.457031 -0.796875 3.722656 -0.84375 3.921875 -0.9375 C 4.128906 -1.039062 4.3125 -1.164062 4.46875 -1.3125 C 4.570312 -1.375 4.671875 -1.40625 4.765625 -1.40625 C 4.878906 -1.40625 4.972656 -1.363281 5.046875 -1.28125 C 5.128906 -1.195312 5.171875 -1.101562 5.171875 -1 C 5.171875 -0.851562 5.101562 -0.722656 4.96875 -0.609375 C 4.769531 -0.410156 4.503906 -0.238281 4.171875 -0.09375 C 3.847656 0.0390625 3.515625 0.109375 3.171875 0.109375 C 2.617188 0.109375 2.132812 -0.00390625 1.71875 -0.234375 C 1.300781 -0.472656 0.976562 -0.800781 0.75 -1.21875 C 0.519531 -1.632812 0.40625 -2.109375 0.40625 -2.640625 C 0.40625 -3.210938 0.519531 -3.710938 0.75 -4.140625 C 0.988281 -4.578125 1.300781 -4.910156 1.6875 -5.140625 C 2.070312 -5.378906 2.488281 -5.5 2.9375 -5.5 C 3.375 -5.5 3.78125 -5.382812 4.15625 -5.15625 C 4.539062 -4.925781 4.847656 -4.613281 5.078125 -4.21875 C 5.316406 -3.820312 5.4375 -3.378906 5.4375 -2.890625 Z M 2.9375 -4.59375 C 2.550781 -4.59375 2.21875 -4.484375 1.9375 -4.265625 C 1.65625 -4.054688 1.472656 -3.722656 1.390625 -3.265625 L 4.40625 -3.265625 L 4.40625 -3.359375 C 4.375 -3.710938 4.210938 -4.003906 3.921875 -4.234375 C 3.628906 -4.472656 3.300781 -4.59375 2.9375 -4.59375 Z M 2.9375 -4.59375 "/></g></g></g><g fill="#000000" fill-opacity="1"><g transform="translate(196.449398, 78.802576)"><g><path d="M 3.421875 -5.5 C 3.890625 -5.5 4.3125 -5.378906 4.6875 -5.140625 C 5.0625 -4.898438 5.351562 -4.566406 5.5625 -4.140625 C 5.78125 -3.710938 5.890625 -3.234375 5.890625 -2.703125 C 5.890625 -2.171875 5.78125 -1.6875 5.5625 -1.25 C 5.351562 -0.820312 5.0625 -0.488281 4.6875 -0.25 C 4.3125 -0.0078125 3.894531 0.109375 3.4375 0.109375 C 3.082031 0.109375 2.75 0.03125 2.4375 -0.125 C 2.132812 -0.289062 1.890625 -0.488281 1.703125 -0.71875 L 1.703125 -0.421875 C 1.703125 -0.285156 1.65625 -0.164062 1.5625 -0.0625 C 1.46875 0.03125 1.347656 0.078125 1.203125 0.078125 C 1.066406 0.078125 0.953125 0.03125 0.859375 -0.0625 C 0.773438 -0.15625 0.734375 -0.273438 0.734375 -0.421875 L 0.734375 -7.09375 C 0.734375 -7.238281 0.773438 -7.351562 0.859375 -7.4375 C 0.953125 -7.53125 1.066406 -7.578125 1.203125 -7.578125 C 1.347656 -7.578125 1.46875 -7.53125 1.5625 -7.4375 C 1.65625 -7.34375 1.703125 -7.226562 1.703125 -7.09375 L 1.703125 -4.59375 C 1.867188 -4.84375 2.109375 -5.054688 2.421875 -5.234375 C 2.734375 -5.410156 3.066406 -5.5 3.421875 -5.5 Z M 3.3125 -0.796875 C 3.625 -0.796875 3.90625 -0.878906 4.15625 -1.046875 C 4.414062 -1.210938 4.613281 -1.441406 4.75 -1.734375 C 4.894531 -2.023438 4.96875 -2.347656 4.96875 -2.703125 C 4.96875 -3.054688 4.894531 -3.375 4.75 -3.65625 C 4.613281 -3.945312 4.414062 -4.175781 4.15625 -4.34375 C 3.90625 -4.507812 3.625 -4.59375 3.3125 -4.59375 C 2.988281 -4.59375 2.703125 -4.507812 2.453125 -4.34375 C 2.203125 -4.175781 2.003906 -3.953125 1.859375 -3.671875 C 1.722656 -3.390625 1.65625 -3.066406 1.65625 -2.703125 C 1.65625 -2.335938 1.722656 -2.007812 1.859375 -1.71875 C 2.003906 -1.4375 2.203125 -1.210938 2.453125 -1.046875 C 2.703125 -0.878906 2.988281 -0.796875 3.3125 -0.796875 Z M 3.3125 -0.796875 "/></g></g></g><g fill="#000000" fill-opacity="1"><g transform="translate(209.431579, 78.802576)"><g><path d="M 0.421875 -0.84375 C 0.359375 -0.9375 0.328125 -1.03125 0.328125 -1.125 C 0.328125 -1.257812 0.398438 -1.375 0.546875 -1.46875 C 0.609375 -1.507812 0.6875 -1.53125 0.78125 -1.53125 C 0.90625 -1.53125 1.019531 -1.484375 1.125 -1.390625 C 1.320312 -1.148438 1.535156 -0.972656 1.765625 -0.859375 C 2.003906 -0.742188 2.289062 -0.6875 2.625 -0.6875 C 2.882812 -0.695312 3.113281 -0.753906 3.3125 -0.859375 C 3.507812 -0.972656 3.609375 -1.160156 3.609375 -1.421875 C 3.609375 -1.648438 3.503906 -1.820312 3.296875 -1.9375 C 3.097656 -2.0625 2.804688 -2.175781 2.421875 -2.28125 C 2.035156 -2.382812 1.71875 -2.492188 1.46875 -2.609375 C 1.21875 -2.722656 1.003906 -2.882812 0.828125 -3.09375 C 0.648438 -3.3125 0.5625 -3.597656 0.5625 -3.953125 C 0.5625 -4.253906 0.648438 -4.519531 0.828125 -4.75 C 1.003906 -4.988281 1.234375 -5.171875 1.515625 -5.296875 C 1.804688 -5.429688 2.125 -5.5 2.46875 -5.5 C 2.800781 -5.5 3.128906 -5.4375 3.453125 -5.3125 C 3.773438 -5.1875 4.039062 -5 4.25 -4.75 C 4.320312 -4.65625 4.359375 -4.554688 4.359375 -4.453125 C 4.359375 -4.335938 4.304688 -4.226562 4.203125 -4.125 C 4.128906 -4.0625 4.046875 -4.03125 3.953125 -4.03125 C 3.828125 -4.03125 3.726562 -4.070312 3.65625 -4.15625 C 3.507812 -4.320312 3.332031 -4.445312 3.125 -4.53125 C 2.914062 -4.625 2.679688 -4.671875 2.421875 -4.671875 C 2.171875 -4.671875 1.953125 -4.617188 1.765625 -4.515625 C 1.585938 -4.410156 1.5 -4.234375 1.5 -3.984375 C 1.5 -3.742188 1.597656 -3.5625 1.796875 -3.4375 C 2.003906 -3.320312 2.316406 -3.210938 2.734375 -3.109375 C 3.097656 -3.015625 3.398438 -2.910156 3.640625 -2.796875 C 3.878906 -2.691406 4.078125 -2.53125 4.234375 -2.3125 C 4.398438 -2.09375 4.484375 -1.8125 4.484375 -1.46875 C 4.484375 -1.144531 4.390625 -0.863281 4.203125 -0.625 C 4.023438 -0.394531 3.785156 -0.210938 3.484375 -0.078125 C 3.191406 0.046875 2.878906 0.109375 2.546875 0.109375 C 2.109375 0.109375 1.707031 0.0351562 1.34375 -0.109375 C 0.976562 -0.265625 0.671875 -0.507812 0.421875 -0.84375 Z M 0.421875 -0.84375 "/></g></g></g><g fill="#000000" fill-opacity="1"><g transform="translate(221.009339, 78.802576)"><g><path d="M 1.65625 -0.484375 C 1.65625 -0.347656 1.609375 -0.234375 1.515625 -0.140625 C 1.421875 -0.046875 1.300781 0 1.15625 0 C 1.019531 0 0.90625 -0.046875 0.8125 -0.140625 C 0.71875 -0.234375 0.671875 -0.347656 0.671875 -0.484375 L 0.671875 -4.9375 C 0.671875 -5.070312 0.71875 -5.1875 0.8125 -5.28125 C 0.90625 -5.375 1.019531 -5.421875 1.15625 -5.421875 C 1.300781 -5.421875 1.421875 -5.375 1.515625 -5.28125 C 1.609375 -5.1875 1.65625 -5.070312 1.65625 -4.9375 Z M 1.15625 -6.09375 C 0.957031 -6.09375 0.8125 -6.128906 0.71875 -6.203125 C 0.632812 -6.273438 0.59375 -6.390625 0.59375 -6.546875 L 0.59375 -6.71875 C 0.59375 -6.875 0.640625 -6.988281 0.734375 -7.0625 C 0.828125 -7.132812 0.96875 -7.171875 1.15625 -7.171875 C 1.351562 -7.171875 1.492188 -7.132812 1.578125 -7.0625 C 1.660156 -6.988281 1.703125 -6.875 1.703125 -6.71875 L 1.703125 -6.546875 C 1.703125 -6.378906 1.65625 -6.257812 1.5625 -6.1875 C 1.476562 -6.125 1.34375 -6.09375 1.15625 -6.09375 Z M 1.15625 -6.09375 "/></g></g></g><g fill="#000000" fill-opacity="1"><g transform="translate(230.024285, 78.802576)"><g><path d="M 2.1875 -4.421875 L 2.1875 -1.359375 C 2.1875 -1.015625 2.335938 -0.84375 2.640625 -0.84375 C 2.691406 -0.84375 2.757812 -0.851562 2.84375 -0.875 C 2.925781 -0.90625 2.988281 -0.921875 3.03125 -0.921875 C 3.125 -0.921875 3.203125 -0.882812 3.265625 -0.8125 C 3.328125 -0.738281 3.359375 -0.640625 3.359375 -0.515625 C 3.359375 -0.378906 3.273438 -0.257812 3.109375 -0.15625 C 2.941406 -0.0507812 2.753906 0 2.546875 0 C 2.328125 0 2.125 -0.0195312 1.9375 -0.0625 C 1.75 -0.113281 1.578125 -0.238281 1.421875 -0.4375 C 1.273438 -0.632812 1.203125 -0.929688 1.203125 -1.328125 L 1.203125 -4.421875 L 0.609375 -4.421875 C 0.484375 -4.421875 0.375 -4.460938 0.28125 -4.546875 C 0.195312 -4.628906 0.15625 -4.738281 0.15625 -4.875 C 0.15625 -5 0.195312 -5.101562 0.28125 -5.1875 C 0.375 -5.269531 0.484375 -5.3125 0.609375 -5.3125 L 1.203125 -5.3125 L 1.203125 -6.171875 C 1.203125 -6.304688 1.25 -6.421875 1.34375 -6.515625 C 1.4375 -6.609375 1.554688 -6.65625 1.703125 -6.65625 C 1.835938 -6.65625 1.953125 -6.609375 2.046875 -6.515625 C 2.140625 -6.421875 2.1875 -6.304688 2.1875 -6.171875 L 2.1875 -5.3125 L 3.03125 -5.3125 C 3.164062 -5.3125 3.273438 -5.265625 3.359375 -5.171875 C 3.441406 -5.085938 3.484375 -4.984375 3.484375 -4.859375 C 3.484375 -4.722656 3.441406 -4.613281 3.359375 -4.53125 C 3.273438 -4.457031 3.164062 -4.421875 3.03125 -4.421875 Z M 2.1875 -4.421875 "/></g></g></g><g fill="#000000" fill-opacity="1"><g transform="translate(240.607676, 78.802576)"><g><path d="M 5.4375 -2.890625 C 5.4375 -2.765625 5.382812 -2.660156 5.28125 -2.578125 C 5.1875 -2.492188 5.078125 -2.453125 4.953125 -2.453125 L 1.34375 -2.453125 C 1.394531 -1.953125 1.582031 -1.550781 1.90625 -1.25 C 2.238281 -0.945312 2.644531 -0.796875 3.125 -0.796875 C 3.457031 -0.796875 3.722656 -0.84375 3.921875 -0.9375 C 4.128906 -1.039062 4.3125 -1.164062 4.46875 -1.3125 C 4.570312 -1.375 4.671875 -1.40625 4.765625 -1.40625 C 4.878906 -1.40625 4.972656 -1.363281 5.046875 -1.28125 C 5.128906 -1.195312 5.171875 -1.101562 5.171875 -1 C 5.171875 -0.851562 5.101562 -0.722656 4.96875 -0.609375 C 4.769531 -0.410156 4.503906 -0.238281 4.171875 -0.09375 C 3.847656 0.0390625 3.515625 0.109375 3.171875 0.109375 C 2.617188 0.109375 2.132812 -0.00390625 1.71875 -0.234375 C 1.300781 -0.472656 0.976562 -0.800781 0.75 -1.21875 C 0.519531 -1.632812 0.40625 -2.109375 0.40625 -2.640625 C 0.40625 -3.210938 0.519531 -3.710938 0.75 -4.140625 C 0.988281 -4.578125 1.300781 -4.910156 1.6875 -5.140625 C 2.070312 -5.378906 2.488281 -5.5 2.9375 -5.5 C 3.375 -5.5 3.78125 -5.382812 4.15625 -5.15625 C 4.539062 -4.925781 4.847656 -4.613281 5.078125 -4.21875 C 5.316406 -3.820312 5.4375 -3.378906 5.4375 -2.890625 Z M 2.9375 -4.59375 C 2.550781 -4.59375 2.21875 -4.484375 1.9375 -4.265625 C 1.65625 -4.054688 1.472656 -3.722656 1.390625 -3.265625 L 4.40625 -3.265625 L 4.40625 -3.359375 C 4.375 -3.710938 4.210938 -4.003906 3.921875 -4.234375 C 3.628906 -4.472656 3.300781 -4.59375 2.9375 -4.59375 Z M 2.9375 -4.59375 "/></g></g></g></svg>